Coordinates
version=1
nRows=8
nColumns=60
inDegrees=yes

Units are S.I. units (second, meters, Newtons, ...)
If the header above contains a line with 'inDegrees', this indicates whether rotational values are in degrees (yes) or radians (no).

endheader
time	pelvis_tilt	pelvis_list	pelvis_rotation	pelvis_tx	pelvis_ty	pelvis_tz	hip_flexion_r	hip_adduction_r	hip_rotation_r	knee_angle_r_beta	knee_angle_r	ankle_angle_r	subtalar_angle_r	mtp_angle_r	hip_flexion_l	hip_adduction_l	hip_rotation_l	knee_angle_l_beta	knee_angle_l	ankle_angle_l	subtalar_angle_l	mtp_angle_l	L5_S1_Flex_Ext	L5_S1_Lat_Bending	L5_S1_axial_rotation	L4_L5_Flex_Ext	L4_L5_Lat_Bending	L4_L5_axial_rotation	L3_L4_Flex_Ext	L3_L4_Lat_Bending	L3_L4_axial_rotation	L2_L3_Flex_Ext	L2_L3_Lat_Bending	L2_L3_axial_rotation	L1_L2_Flex_Ext	L1_L2_Lat_Bending	L1_L2_axial_rotation	L1_T12_Flex_Ext	L1_T12_Lat_Bending	L1_T12_axial_rotation	Abs_r3	Abs_r2	Abs_r1	Abs_t1	Abs_t2	arm_flex_r	arm_add_r	arm_rot_r	elbow_flex_r	pro_sup_r	wrist_flex_r	wrist_dev_r	arm_flex_l	arm_add_l	arm_rot_l	elbow_flex_l	pro_sup_l	wrist_flex_l	wrist_dev_l
     14.56000000	      1.09489537	    -11.21660261	     94.84030718	      0.39976269	      0.84473873	      0.42328645	     47.55589209	     -7.20237892	     -0.32221127	      0.76530408	    -43.84869358	      9.80722532	      0.00000000	      0.00000000	     48.83725207	     -4.55683647	      1.92596978	      0.73235440	    -41.96081603	      8.36039789	      0.00000000	      0.00000000	    -11.30698582	      0.44774341	      0.14179195	    -20.99820336	      0.59549874	      0.15065395	    -18.57624700	      1.08864333	      0.15065395	    -12.92275409	      1.08864333	      0.12406796	    -10.49966703	      0.91303836	      0.11520596	     -6.46081170	      0.69355454	      0.10634396	    -80.76466900	      5.06496301	      0.78860428	      0.00000000	      0.00000000	     88.91056177	    -16.69722307	     21.89336250	     29.43976853	     67.64299566	     25.95137810	     -1.24786378	     94.47766708	    -13.59435440	     43.04584269	     23.45508780	     56.76006311	     26.73993902	     -8.20941809
     14.57000000	      1.07019089	    -11.10811634	     94.79822418	      0.39986734	      0.84423426	      0.42356018	     47.56877255	     -7.20551094	     -0.33008778	      0.76791826	    -43.99847519	      9.82787966	      0.00000000	      0.00000000	     48.83598551	     -4.55675471	      1.95674309	      0.73516060	    -42.12159948	      8.38838477	      0.00000000	      0.00000000	    -11.31264338	      0.44531089	      0.14875934	    -21.00871002	      0.59226348	      0.15805680	    -18.58554180	      1.08272889	      0.15805680	    -12.92922012	      1.08272889	      0.13016442	    -10.50492064	      0.90807796	      0.12086697	     -6.46404443	      0.68978656	      0.11156951	    -80.80508038	      5.03744581	      0.82735483	      0.00000000	      0.00000000	     88.89611861	    -16.68173242	     21.80753031	     29.47014477	     67.58868155	     25.92504749	     -1.24654309	     94.43776049	    -13.52840289	     42.98354577	     23.49438209	     56.71785453	     26.74231321	     -8.21484998
     14.58000000	      1.08442382	    -10.90232314	     94.79064225	      0.40000820	      0.84372933	      0.42375888	     47.55900409	     -7.19756334	     -0.40464826	      0.77422086	    -44.35958783	      9.92141956	      0.00000000	      0.00000000	     48.85801400	     -4.61517495	      1.91720189	      0.74196635	    -42.51154056	      8.52060266	      0.00000000	      0.00000000	    -11.32858795	      0.44308225	      0.14537312	    -21.03832068	      0.58929939	      0.15445894	    -18.61173714	      1.07731018	      0.15445894	    -12.94744317	      1.07731018	      0.12720148	    -10.51972677	      0.90353332	      0.11811566	     -6.47315515	      0.68633440	      0.10902984	    -80.91897087	      5.01223501	      0.80852170	      0.00000000	      0.00000000	     88.76452173	    -16.61217603	     21.58271241	     29.63631760	     67.49124874	     25.83318345	     -1.22306246	     94.43668731	    -13.53587370	     42.88611022	     23.47025677	     56.65650354	     26.74041041	     -8.19302149
     14.59000000	      1.07882742	    -10.82597878	     94.78146928	      0.40014639	      0.84333059	      0.42394264	     47.53917377	     -7.20463849	     -0.41558625	      0.77509951	    -44.40993066	      9.93301623	      0.00000000	      0.00000000	     48.84697963	     -4.61978058	      1.93872145	      0.74308035	    -42.57536784	      8.53151554	      0.00000000	      0.00000000	    -11.32471752	      0.44258436	      0.14727915	    -21.03113290	      0.58863720	      0.15648409	    -18.60537841	      1.07609961	      0.15648409	    -12.94301965	      1.07609961	      0.12886925	    -10.51613269	      0.90251802	      0.11966431	     -6.47094359	      0.68556317	      0.11045936	    -80.89132475	      5.00660277	      0.81912243	      0.00000000	      0.00000000	     88.48883601	    -16.65030015	     21.41452672	     29.96125753	     67.19024205	     25.81610751	     -1.20652950	     94.34418522	    -13.54740822	     42.60171105	     23.55386413	     56.43626367	     26.74814403	     -8.18795460
     14.60000000	      1.07850966	    -10.66543917	     94.75111073	      0.40034783	      0.84295508	      0.42406838	     47.49272537	     -7.19548535	     -0.46613322	      0.77841220	    -44.59973360	      9.97749501	      0.00000000	      0.00000000	     48.81515536	     -4.64680765	      2.00050728	      0.74699925	    -42.79990406	      8.55983171	      0.00000000	      0.00000000	    -11.32731501	      0.43771311	      0.14585947	    -21.03595670	      0.58215843	      0.15497568	    -18.60964582	      1.06425565	      0.15497568	    -12.94598832	      1.06425565	      0.12762703	    -10.51854471	      0.89258457	      0.11851082	     -6.47242779	      0.67801761	      0.10939460	    -80.90987836	      4.95149823	      0.81122660	      0.00000000	      0.00000000	     88.25258522	    -16.62892274	     21.24990064	     30.15991145	     67.00696807	     25.76400763	     -1.17431842	     94.21204476	    -13.58249158	     42.46394395	     23.59057010	     56.30741923	     26.75694334	     -8.14866671
     14.61000000	      1.09271141	    -10.43912373	     94.75741692	      0.40052509	      0.84264417	      0.42410955	     47.43305108	     -7.21303415	     -0.62550151	      0.78434091	    -44.93942408	     10.18031523	      0.00000000	      0.00000000	     48.79472954	     -4.69148088	      1.97112953	      0.75388405	    -43.19437420	      8.71695852	      0.00000000	      0.00000000	    -11.33966923	      0.43441117	      0.12633394	    -21.05889973	      0.57776685	      0.13422981	    -18.62994258	      1.05622731	      0.13422981	    -12.96010796	      1.05622731	      0.11054219	    -10.53001685	      0.88585125	      0.10264632	     -6.47948700	      0.67290290	      0.09475045	    -80.99812335	      4.91414600	      0.70263145	      0.00000000	      0.00000000	     87.97987890	    -16.42807852	     20.81260157	     30.38224517	     67.13103023	     25.46107695	     -1.03851298	     94.16101116	    -13.74861830	     42.66825009	     23.56078656	     56.42237542	     26.74092392	     -7.91587157
     14.62000000	      1.10730639	    -10.31495196	     94.75945079	      0.40074218	      0.84241833	      0.42419871	     47.39321939	     -7.18447437	     -0.62744648	      0.78685489	    -45.08346401	     10.20355336	      0.00000000	      0.00000000	     48.75914494	     -4.71338964	      2.03948581	      0.75622279	    -43.32837401	      8.70287981	      0.00000000	      0.00000000	    -11.33691386	      0.43060315	      0.11876801	    -21.05378273	      0.57270219	      0.12619101	    -18.62541578	      1.04696850	      0.12619101	    -12.95695885	      1.04696850	      0.10392201	    -10.52745821	      0.87808595	      0.09649901	     -6.47791258	      0.66700428	      0.08907601	    -80.97844201	      4.87106896	      0.66055204	      0.00000000	      0.00000000	     87.64698108	    -16.36546889	     20.57320330	     30.68946466	     67.02155933	     25.30206463	     -0.94464014	     94.00321453	    -13.83550694	     42.53345245	     23.66612415	     56.30558610	     26.72249792	     -7.80257710
     14.63000000	      1.11824606	    -10.23591263	     94.77736000	      0.40096133	      0.84226092	      0.42424905	     47.35427319	     -7.17100533	     -0.64766713	      0.78783105	    -45.13939432	     10.21345965	      0.00000000	      0.00000000	     48.72522040	     -4.72913657	      2.06560995	      0.75720983	    -43.38492768	      8.69742653	      0.00000000	      0.00000000	    -11.32820818	      0.42787438	      0.11441891	    -21.03761540	      0.56907293	      0.12157009	    -18.61111321	      1.04033377	      0.12157009	    -12.94700912	      1.04033377	      0.10011654	    -10.51937411	      0.87252144	      0.09296536	     -6.47293815	      0.66277742	      0.08581418	    -80.91625818	      4.84020059	      0.63636364	      0.00000000	      0.00000000	     87.29676835	    -16.36754878	     20.38606189	     31.02215655	     66.75449180	     25.24729552	     -0.89971762	     93.78650015	    -13.86284060	     42.25356917	     23.79236088	     56.07924643	     26.71779500	     -7.76546733
